<?xml version="1.0" encoding="UTF-8"?>
<svg id="Layer_1" data-name="Layer 1" xmlns="http://www.w3.org/2000/svg" viewBox="0 0 307.6 566.7">
  <defs>
    <style>
      .cls-1 {
        stroke-width: 0px;
      }
    </style>
  </defs>
  <path class="cls-1" d="m62.74,23.4C66.81,8.03,80.26.34,103.1.34h75.97c11.07,0,19.61,5.15,25.6,15.43,5.99,10.29,9.55,20.52,10.68,30.69.22,3.39.34,6.67.34,9.84,0,10.4-1.86,21.03-5.59,31.88-3.73,10.85-9.1,19.67-16.11,26.45-2.03,2.03-5.54,5.71-10.51,11.02-4.98,5.32-10.63,11.25-16.96,17.8-6.78,7.24-13.11,13.96-18.99,20.18-5.88,6.22-10.29,10.68-13.23,13.4-5.88,5.65-12.72,13.34-20.52,23.06-7.8,9.72-12.89,18.6-15.26,26.62-2.37,8.03-3.56,14.07-3.56,18.14,0,7.92,2.15,15.83,6.44,23.74-17.41-15.82-26.11-33.69-26.11-53.58,0-2.71.73-10.51,2.2-23.4,1.47-12.89,8.08-25.32,19.84-37.3,2.49-2.26,5.65-5.31,9.5-9.16,10.4-9.95,22.95-22.55,37.64-37.81,14.69-15.26,27.47-30.35,38.32-45.28,10.85-14.92,16.28-27.35,16.28-37.3v-1.02c-4.07-11.98-13.79-17.97-29.17-17.97h-66.81c-20.35,0-32.22,6.67-35.61,20.01-3.17,7.69-4.87,16.28-5.09,25.77v2.03c.22,47.26.34,94.62.34,142.1v71.22c-.23,33.69-.34,67.49-.34,101.4,0,19.45-4.98,35.16-14.92,47.14l-9.83,9.84,25.1,24.76-28.83,28.49-28.49-28.49c10.17-12.66,15.26-29.05,15.26-49.17V51.21C20.69,25.21,13.79,8.14,0,0c31.65,0,51.55,10.85,59.69,32.56.68-3.16,1.7-6.22,3.05-9.16Zm114.63,137.01c-3.17,1.36-6.56,4.53-10.17,9.5-3.62,4.98-5.99,10.97-7.12,17.97v1.7c0,22.38,12.21,52.57,36.63,90.55,2.71,4.98,8.93,15.83,18.65,32.56,9.72,16.73,20.57,35.5,32.56,56.3,12.21,21.25,23.23,40.36,33.07,57.31,9.83,16.96,15.99,27.59,18.48,31.88,4.97,9.5,7.57,18.26,7.8,26.28.22,8.02.34,12.38.34,13.06,0,14.47-3.28,28.43-9.84,41.88-6.56,13.45-17.86,22.55-33.91,27.3,3.16-1.13,6.56-4.24,10.17-9.33,3.61-5.09,5.88-11.14,6.78-18.14v-.34c0-9.5-6.95-28.32-20.86-56.47-13.9-28.15-29.84-58.33-47.82-90.55-17.97-32.22-33.07-58.72-45.28-79.53-8.37-14.69-16.06-28.6-23.06-41.71-2.71-5.2-4.87-9.16-6.44-11.87-4.53-8.59-6.78-18.2-6.78-28.83,0-7.01,1.75-17.52,5.26-31.54,3.5-14.02,17.35-26.68,41.54-37.98Z"/>
  <path class="cls-1" d="m207.3,461.6c0,8.74-1.98,17.18-5.95,25.32-3.95,8.12-10.8,13.63-20.49,16.51,1.91-.69,3.97-2.57,6.14-5.64,2.19-3.07,3.55-6.74,4.11-10.97v-.21c0-5.74-4.21-17.11-12.61-34.13-8.4-17.02-18.04-35.26-28.91-54.75-10.87-19.47-19.99-35.5-27.37-48.07-5.05-8.88-9.69-17.28-13.94-25.22-1.64-3.14-2.93-5.54-3.9-7.18-2.73-5.19-4.09-11-4.09-17.42,0-4.24,1.05-10.59,3.17-19.08,2.12-8.47,10.49-16.13,25.11-22.96-1.91.83-3.97,2.74-6.16,5.74-2.19,3-3.62,6.62-4.29,10.87v1.02c0,13.54,7.38,31.79,22.13,54.75,1.64,3,5.4,9.57,11.28,19.68,5.88,10.11,12.44,21.46,19.68,34.03,7.38,12.85,14.04,24.39,19.99,34.65,5.95,10.25,9.68,16.68,11.18,19.27,3,5.74,4.57,11.04,4.71,15.89.14,4.85.21,7.49.21,7.9Z"/>
  <path class="cls-1" d="m145.5,163.23c-1.12,2.12-1.71,3.1-1.71,3.1"/>
</svg>