<?xml version="1.0" encoding="utf-8"?>
<!-- Generator: Adobe Illustrator 28.0.0, SVG Export Plug-In . SVG Version: 6.00 Build 0)  -->
<svg version="1.1" id="Layer_1" xmlns="http://www.w3.org/2000/svg" xmlns:xlink="http://www.w3.org/1999/xlink" x="0px" y="0px"
	 viewBox="0 0 1080 1080" style="enable-background:new 0 0 1080 1080;" xml:space="preserve">
<g>
	<g>
		<path d="M245.55,452.28h45.28c16.66,0,30.44,13.63,30.44,30.59c0,12.42-7.42,23.02-18.17,27.86l17.72,33.32
			c1.67,3.63,4.54,7.27,7.42,8.78c0.3,0.15,0.3,0.61,0.15,0.91c-0.15,0.31-0.45,0.45-0.76,0.45h-1.97c-6.82,0-8.63-0.76-11.66-6.81
			l-18.32-34.53c-1.52,0.3-3.18,0.45-4.85,0.45c-1.36-0.15-9.24-0.15-17.11-0.15s-15.75,0-17.26,0.15v33.62c0,3.94,3.79,5,3.79,7.27
			h-14.69c0-2.27,3.63-3.33,3.63-7.27v-87.39C249.18,455.61,245.55,454.55,245.55,452.28z M256.6,455.01v55.58h28.77
			c15.45,0,27.87-12.42,27.87-27.72c0-15.45-12.42-27.87-27.87-27.87H256.6z"/>
		<path d="M346.43,488.02v59.52c0,3.63,3.48,4.54,3.48,6.66c-4.54,0-8.94,0-13.48,0c0-2.12,3.33-3.03,3.33-6.66v-59.52
			c0-3.49-3.33-4.39-3.33-6.51c4.54,0,8.93,0,13.48,0C349.91,483.63,346.43,484.54,346.43,488.02z"/>
		<path d="M389.75,480.45c8.18,0,14.24,2.57,19.23,5.76c1.36,0.91,2.12,2.42,2.12,4.09v4.84c-0.15,0-0.15,0.15-0.3,0.15
			c-0.91,0-1.67-2.12-2.73-3.94c-2.88-5.15-12.57-8.48-18.33-8.48c-14.54,0-26.5,15.75-26.5,35.14c0,19.39,11.81,34.98,26.5,34.98
			c5.76,0,15.45-3.33,18.33-8.48c1.06-1.66,1.82-3.79,2.73-3.79c0,0,0.15,0,0.3,0.15v4.85c0,1.66-0.76,3.03-2.12,3.94
			c-5,3.33-11.06,5.91-19.23,5.91c-18.78,0-33.92-16.81-33.92-37.56C355.82,497.26,370.97,480.45,389.75,480.45z"/>
		<path d="M418.99,481.51h13.48c0,2.12-3.48,3.03-3.48,6.51v20.9H467v-20.9c0-3.49-3.48-4.39-3.48-6.51h13.48
			c0,2.12-3.33,3.03-3.33,6.51v59.52c0,3.63,3.33,4.54,3.33,6.66h-13.48c0-2.12,3.48-3.03,3.48-6.66V511.5h-38.01v36.05
			c0,3.63,3.48,4.54,3.48,6.66h-13.48c0-2.12,3.33-3.03,3.33-6.66v-59.52C422.32,484.54,418.99,483.63,418.99,481.51z"/>
		<path d="M494.88,488.02v59.52c0,3.63,3.48,4.54,3.48,6.66c-4.54,0-8.94,0-13.48,0c0-2.12,3.33-3.03,3.33-6.66v-59.52
			c0-3.49-3.33-4.39-3.33-6.51c4.54,0,8.93,0,13.48,0C498.36,483.63,494.88,484.54,494.88,488.02z"/>
		<path d="M506.24,554.2c0-2.12,3.33-3.03,3.33-6.66v-59.52c0-3.49-3.33-4.39-3.33-6.51h44.98c3.33,0,3.79,3.18,3.79,5.75
			c-1.36,0-1.36-0.76-2.57-1.51c-2.12-1.36-4.54-1.82-6.97-1.82h-29.23v24.99h24.53c3.48,0,4.54-3.33,6.51-3.33v9.24
			c-1.97,0-3.03-3.33-6.51-3.33h-24.53v40.13h34.53c2.42,0,5-0.31,7.12-1.67c1.06-0.76,1.06-1.66,2.42-1.66
			c0,2.73-0.45,5.91-3.79,5.91H506.24z"/>
		<path d="M602.12,452.28h45.28c16.66,0,30.44,13.63,30.44,30.59c0,12.42-7.42,23.02-18.17,27.86l17.72,33.32
			c1.67,3.63,4.54,7.27,7.42,8.78c0.3,0.15,0.3,0.61,0.15,0.91c-0.15,0.31-0.45,0.45-0.76,0.45h-1.97c-6.82,0-8.64-0.76-11.66-6.81
			l-18.32-34.53c-1.52,0.3-3.18,0.45-4.85,0.45c-1.36-0.15-9.24-0.15-17.11-0.15s-15.75,0-17.26,0.15v33.62c0,3.94,3.78,5,3.78,7.27
			h-14.69c0-2.27,3.63-3.33,3.63-7.27v-87.39C605.76,455.61,602.12,454.55,602.12,452.28z M613.18,455.01v55.58h28.78
			c15.45,0,27.87-12.42,27.87-27.72c0-15.45-12.42-27.87-27.87-27.87H613.18z"/>
		<path d="M703.01,488.02v59.52c0,3.63,3.48,4.54,3.48,6.66c-4.54,0-8.94,0-13.48,0c0-2.12,3.33-3.03,3.33-6.66v-59.52
			c0-3.49-3.33-4.39-3.33-6.51c4.54,0,8.94,0,13.48,0C706.49,483.63,703.01,484.54,703.01,488.02z"/>
		<path d="M746.32,480.45c8.18,0,14.24,2.57,19.24,5.76c1.36,0.91,2.12,2.42,2.12,4.09v4.84c-0.15,0-0.15,0.15-0.3,0.15
			c-0.91,0-1.67-2.12-2.73-3.94c-2.88-5.15-12.57-8.48-18.33-8.48c-14.54,0-26.5,15.75-26.5,35.14c0,19.39,11.81,34.98,26.5,34.98
			c5.76,0,15.45-3.33,18.33-8.48c1.06-1.66,1.82-3.79,2.73-3.79c0,0,0.15,0,0.3,0.15v4.85c0,1.66-0.76,3.03-2.12,3.94
			c-5,3.33-11.06,5.91-19.24,5.91c-18.78,0-33.92-16.81-33.92-37.56C712.4,497.26,727.54,480.45,746.32,480.45z"/>
		<path d="M775.56,481.51h13.48c0,2.12-3.49,3.03-3.49,6.51v20.9h38.02v-20.9c0-3.49-3.49-4.39-3.49-6.51h13.48
			c0,2.12-3.33,3.03-3.33,6.51v59.52c0,3.63,3.33,4.54,3.33,6.66h-13.48c0-2.12,3.49-3.03,3.49-6.66V511.5h-38.02v36.05
			c0,3.63,3.49,4.54,3.49,6.66h-13.48c0-2.12,3.33-3.03,3.33-6.66v-59.52C778.89,484.54,775.56,483.63,775.56,481.51z"/>
	</g>
	<g>
		<path d="M247.74,593.36h14.61c4.06,0,7.31,1.06,9.28,2.94c1.47,1.4,2.28,3.23,2.28,5.45v0.1c0,4.34-2.94,7.05-6.54,8.01
			c4.67,0.82,8.47,3.67,8.47,8.25v0.1c0,5.6-4.82,8.93-12.73,8.93h-15.37V593.36z M262.7,609.33c5.28,0,9.49-2.46,9.49-7.33v-0.1
			c0-4.25-3.65-7.05-9.89-7.05h-12.83v14.48H262.7z M263.16,625.65c6.85,0,10.9-2.8,10.9-7.38v-0.1c0-4.73-4.41-7.33-10.7-7.33
			h-13.9v14.82H263.16z"/>
		<path d="M323.41,593.11h1.62l16.84,34.03H340l-4.82-9.85h-21.96l-4.87,9.85h-1.77L323.41,593.11z M334.42,615.8l-10.24-20.75
			l-10.19,20.75H334.42z"/>
		<path d="M374.55,593.36h1.57l25.97,30.99v-30.99h1.67v33.79h-1.37l-26.17-31.23v31.23h-1.67V593.36z"/>
		<path d="M438.1,610.35v-0.1c0-9.07,6.85-17.47,17.55-17.47c5.58,0,9.03,1.59,12.58,4.39l-1.12,1.26
			c-3.1-2.46-6.34-4.15-11.56-4.15c-9.43,0-15.67,7.62-15.67,15.93v0.09c0,8.73,5.93,15.98,15.92,15.98c4.97,0,9.28-2.08,12.12-4.34
			v-10.38H455.3v-1.59h14.3v12.6c-3.3,2.85-8.12,5.16-13.85,5.16C444.59,627.72,438.1,619.81,438.1,610.35z"/>
		<path d="M504.65,593.36h1.72v32.29h21.4v1.49h-23.13V593.36z"/>
		<path d="M573.94,593.11h1.62l16.84,34.03h-1.87l-4.82-9.85h-21.96l-4.87,9.85h-1.78L573.94,593.11z M584.94,615.8l-10.24-20.75
			L564.5,615.8H584.94z"/>
		<path d="M625.06,593.36h11.57c11.15,0,18.87,7.33,18.87,16.85v0.09c0,9.51-7.71,16.85-18.87,16.85h-11.57V593.36z M636.68,625.65
			c10.19,0,17.04-6.76,17.04-15.3v-0.1c0-8.54-6.85-15.4-17.09-15.4h-9.84v30.8H636.68z"/>
		<path d="M689.84,593.36h25.01v1.49h-23.28v14.53h21.05v1.49h-21.05v14.77h23.53v1.49h-25.26V593.36z"/>
		<path d="M746.55,622.22l1.17-1.21c3.75,3.38,7.91,5.12,13.08,5.12c6.14,0,10.15-3.19,10.15-7.43v-0.1c0-3.96-2.39-6.08-10.96-7.77
			c-8.67-1.64-12.07-4.25-12.07-9.12v-0.1c0-4.82,4.82-8.73,11.51-8.73c4.87,0,8.72,1.45,12.07,3.96l-1.07,1.31
			c-3.25-2.46-6.95-3.77-11.11-3.77c-5.83,0-9.69,3.33-9.69,7.1v0.1c0,3.91,2.39,6.08,11.01,7.77c8.82,1.69,12.02,4.39,12.02,9.12
			v0.1c0,5.21-4.72,9.07-11.97,9.07C755.17,627.62,750.56,625.74,746.55,622.22z"/>
		<path d="M806.71,593.36h1.73v16.02h24.29v-16.02h1.73v33.79h-1.73v-16.27h-24.29v16.27h-1.73V593.36z"/>
	</g>
</g>
</svg>
